<svg xmlns="http://www.w3.org/2000/svg" viewBox="0 0 256 257">
  <defs>
    <linearGradient id="bgGrad" x1="0%" y1="0%" x2="100%" y2="100%">
      <stop offset="0%" stop-color="#41D1FF"/>
      <stop offset="100%" stop-color="#BD34FE"/>
    </linearGradient>
    <linearGradient id="starGrad" x1="0%" y1="0%" x2="100%" y2="100%">
      <stop offset="0%" stop-color="#FFEA83"/>
      <stop offset="100%" stop-color="#FFA800"/>
    </linearGradient>
  </defs>
  <!-- 圆角正方形背景 -->
  <rect x="16" y="16" width="224" height="224" rx="48" fill="url(#bgGrad)"/>
  <!-- 字母B -->
  <path fill="url(#starGrad)" d="M80 60h56c20 0 36 16 36 36s-16 36-36 36h-32v44h-24V60zm24 28h32c6.6 0 12 5.4 12 12s-5.4 12-12 12H104v-24zm0 48h36c6.6 0 12 5.4 12 12s-5.4 12-12 12H104v-24z"/>
  <!-- 比特虫Logo图形 -->
  <circle cx="180" cy="170" r="40" fill="url(#starGrad)"/>
  <path fill="#fff" d="M165 155l10 10 20-20" stroke="#fff" stroke-width="6" fill="none" stroke-linecap="round" stroke-linejoin="round"/>
</svg>
