<svg xmlns="http://www.w3.org/2000/svg" viewBox="0 0 32 32">
  <defs>
    <linearGradient id="g1" x1="0%" y1="0%" x2="100%" y2="100%">
      <stop offset="0%" stop-color="#41D1FF"/>
      <stop offset="100%" stop-color="#BD34FE"/>
    </linearGradient>
    <linearGradient id="g2" x1="0%" y1="0%" x2="100%" y2="100%">
      <stop offset="0%" stop-color="#FFEA83"/>
      <stop offset="100%" stop-color="#FFA800"/>
    </linearGradient>
  </defs>
  <circle cx="16" cy="16" r="14" fill="url(#g1)"/>
  <path fill="url(#g2)" d="M11 9h6c2 0 3.5 1.5 3.5 3.5S19 16 17 16h-3v4h-3V9zm2.5 3h3.5c.5 0 1-.5 1-1s-.5-1-1-1H13.5v2zm0 4.5h4c.5 0 1 .5 1 1s-.5 1-1 1H13.5v-2z"/>
  <circle cx="22" cy="21" r="4" fill="url(#g2)"/>
  <path fill="none" stroke="#fff" stroke-width="1.5" stroke-linecap="round" stroke-linejoin="round" d="M20 21l1.5 1.5 2.5-2.5"/>
</svg>
