<svg xmlns="http://www.w3.org/2000/svg" viewBox="0 0 256 257">
  <defs>
    <linearGradient id="bgGrad" x1="0%" y1="0%" x2="100%" y2="100%">
      <stop offset="0%" stop-color="#41D1FF"/>
      <stop offset="100%" stop-color="#BD34FE"/>
    </linearGradient>
    <linearGradient id="starGrad" x1="0%" y1="0%" x2="100%" y2="100%">
      <stop offset="0%" stop-color="#FFEA83"/>
      <stop offset="100%" stop-color="#FFA800"/>
    </linearGradient>
  </defs>
  <!-- 圆形背景 -->
  <circle cx="128" cy="128" r="112" fill="url(#bgGrad)"/>
  <!-- 字母B -->
  <path fill="url(#starGrad)" d="M88 72h48c16 0 28 12 28 28s-12 28-28 28h-24v36h-24V72zm20 24h28c4 0 8 4 8 8s-4 8-8 8H108v-16zm0 36h32c4 0 8 4 8 8s-4 8-8 8H108v-16z"/>
  <!-- 勾选标记 -->
  <circle cx="170" cy="160" r="32" fill="url(#starGrad)"/>
  <path fill="#fff" stroke="#fff" stroke-width="5" fill="none" stroke-linecap="round" stroke-linejoin="round" d="M158 160l8 8 16-16"/>
</svg>
